<svg xmlns="http://www.w3.org/2000/svg" viewBox="0 0 20 20"><circle fill-rule="evenodd" clip-rule="evenodd" fill="#EBBF46" cx="10" cy="10" r="10"/><path fill="#FFF" d="M10 2.3c4.2 0 7.7 3.4 7.7 7.7s-3.4 7.7-7.7 7.7-7.7-3.5-7.7-7.7S5.8 2.3 10 2.3m0-1c-4.8 0-8.7 3.9-8.7 8.7s3.9 8.7 8.7 8.7 8.7-3.9 8.7-8.7-3.9-8.7-8.7-8.7z"/><g fill-rule="evenodd" clip-rule="evenodd" fill="#FFF"><path d="M10.1 9.7l-5.3-.6L7.1 13h6.1l2.3-3.9z"/><path d="M10.1 12.7l-3.8-2.3 3.8-3.8 3.6 3.6z"/><path d="M10.1 11.3L4.8 9.1 7.1 13h6.1l2.3-3.9z"/><path d="M6 13H13.2l-3.6-1.6M9.9 10.1v-2l1 1z"/></g></svg>